<svg xmlns="http://www.w3.org/2000/svg" viewBox="0 0 230.59 90.64"><defs><style>.cls-1{fill:#f0919b;}.cls-2{fill:#f9c270;}</style></defs><title>專題切圖</title><g id="圖層_1" data-name="圖層 1"><path class="cls-1" d="M42,55.62c0,2.61-.46,4.47-1.41,5.58a5.56,5.56,0,0,1-4.43,1.69,5.69,5.69,0,0,1-4.4-1.5c-.94-1-1.41-2.8-1.43-5.37l-.1-20.36a5.54,5.54,0,0,1,1.57-4.37A6,6,0,0,1,36,29.85l8.58-.05a18.92,18.92,0,0,1,5.8.82A14.56,14.56,0,0,1,55,33a10.39,10.39,0,0,1,3,3.79,11.79,11.79,0,0,1,1.12,5.08,9.39,9.39,0,0,1-2,6A11.92,11.92,0,0,1,52,51.62a20.31,20.31,0,0,1-7.28,1.29H42Zm6-14.4a9.87,9.87,0,0,0-.35-2.82,2.88,2.88,0,0,0-1.19-1.57,5.07,5.07,0,0,0-1.84-.69A17.85,17.85,0,0,0,41.87,36l.06,10.61a10.7,10.7,0,0,0,2.39-.25,5.76,5.76,0,0,0,1.9-.83,3.68,3.68,0,0,0,1.31-1.67A6.7,6.7,0,0,0,48,41.22Z"/><path class="cls-1" d="M94.84,49.62c0-1.8-.72-2.7-2.14-2.69a2,2,0,0,0-1.66.85A4.1,4.1,0,0,0,90.3,50l0,7.43c0,2-.38,3.31-1.18,4.06s-2.22,1.12-4.24,1.13-3.2-.43-3.89-1.31A7.13,7.13,0,0,1,80,57l-.06-11.87a5.72,5.72,0,0,1,1.3-4,4.52,4.52,0,0,1,3.54-1.51,7.87,7.87,0,0,1,3.09.51A3.59,3.59,0,0,1,89.73,42a16.35,16.35,0,0,1,9.16-2.51,5.23,5.23,0,0,1,5,2.68c1,1.79,1.55,4.75,1.57,8.86q0,3-.12,5a23.36,23.36,0,0,1-.44,3.28,4.18,4.18,0,0,1-1,2.06,4,4,0,0,1-1.56,1,7.35,7.35,0,0,1-2.29.3,6,6,0,0,1-3.89-1,3.75,3.75,0,0,1-1.2-3Z"/><path class="cls-1" d="M122.12,55.61h-1.73A8.23,8.23,0,0,1,119,60.3a4.39,4.39,0,0,1-3.84,2.19,4.94,4.94,0,0,1-4-1.49c-.86-1-1.29-2.8-1.31-5.38l-.1-19.82a7.08,7.08,0,0,1,.66-3.36,4,4,0,0,1,1.75-1.82A7.34,7.34,0,0,1,115,30q3,0,4,2c.69,1.33,1,3.64,1.05,6.92a44.72,44.72,0,0,1-.4,6.71c.23.7,1,1,2.18,1a2,2,0,0,0,1.56-.52,3.48,3.48,0,0,0,.4-2,4.09,4.09,0,0,1,1.17-3.29,6.21,6.21,0,0,1,4-1c2,0,3.34.34,4,1.06s1,2,1.05,3.93a6,6,0,0,1-1.76,4.64,5.78,5.78,0,0,1-4,1.66,6.3,6.3,0,0,1,4,1.36,4.9,4.9,0,0,1,1.78,4.11c0,2.45-.31,4-1,4.78s-2,1.12-4.07,1.13a6.2,6.2,0,0,1-4-1,4.09,4.09,0,0,1-1.19-3.25,5.61,5.61,0,0,0-.21-1.67,1.22,1.22,0,0,0-.51-.72A2.25,2.25,0,0,0,122.12,55.61Z"/><path class="cls-1" d="M166.47,49.49c0-1.8-.73-2.69-2.18-2.69a1.56,1.56,0,0,0-1.44,1.12,6.94,6.94,0,0,0-.47,2.8c0,1.71,0,3.12,0,4.25a22,22,0,0,1-.3,3,9.4,9.4,0,0,1-.57,2.12,3.47,3.47,0,0,1-.91,1.29,3,3,0,0,1-1.3.68,9,9,0,0,1-1.83.18,6.63,6.63,0,0,1-2.73-.47,3,3,0,0,1-1.47-1.35,4.77,4.77,0,0,1-.45-2.16l0-8.74c0-1.8-.74-2.69-2.19-2.69a1.65,1.65,0,0,0-1.42,1,5.37,5.37,0,0,0-.54,2.58l0,6.71c0,1.93-.39,3.28-1.19,4s-2.21,1.15-4.24,1.16S140,61.92,139.3,61a7.2,7.2,0,0,1-1.06-4.36l-.06-11.86a5.75,5.75,0,0,1,1.31-4A4.52,4.52,0,0,1,143,39.34q3.94,0,5,2.53a11.78,11.78,0,0,1,3.58-1.9,14.37,14.37,0,0,1,4.12-.55,5.4,5.4,0,0,1,5.18,3.06l.48-.39a15.12,15.12,0,0,1,9.1-2.75,5.24,5.24,0,0,1,4.94,2.58c1,1.73,1.52,4.64,1.54,8.73,0,1.7,0,3.12-.05,4.24a25.42,25.42,0,0,1-.3,3,9.54,9.54,0,0,1-.59,2.13,3.53,3.53,0,0,1-1,1.28,3.42,3.42,0,0,1-1.44.68,9.29,9.29,0,0,1-2,.18,7.71,7.71,0,0,1-3-.46A3.23,3.23,0,0,1,167,60.39a4.4,4.4,0,0,1-.49-2.16Z"/><path class="cls-1" d="M194.81,62.37a15.13,15.13,0,0,1-9.74-3,10,10,0,0,1-3.87-8.27,11.31,11.31,0,0,1,3.74-9,14.33,14.33,0,0,1,9.75-3.35q5.64,0,8.28,2a6.49,6.49,0,0,1,2.66,5.46,5.09,5.09,0,0,1-.16,1.3,4.72,4.72,0,0,1-.53,1.23,4.37,4.37,0,0,1-1,1.12,7.28,7.28,0,0,1-1.37.92,6.65,6.65,0,0,1-1.83.64,11.61,11.61,0,0,1-2.26.23l-6.81.08a4.58,4.58,0,0,0,1.75,2.43,5.34,5.34,0,0,0,3.19.87,17.65,17.65,0,0,0,4.25-.55,10.67,10.67,0,0,0,2-.78,4.19,4.19,0,0,1,1.57-.54,1.7,1.7,0,0,1,1.28.48,1.65,1.65,0,0,1,.46,1.2,4.09,4.09,0,0,1-.76,2.1,11.72,11.72,0,0,1-2.13,2.47,11.59,11.59,0,0,1-3.63,2.12A13.46,13.46,0,0,1,194.81,62.37Zm-3.35-13.78,3.61-.06a1.14,1.14,0,0,0,1.06-.88,4.78,4.78,0,0,0,.23-1.73c0-2-.62-3-1.84-3a1.81,1.81,0,0,0-1.33.73,6.31,6.31,0,0,0-1.12,2.05A11.45,11.45,0,0,0,191.46,48.59Z"/><path class="cls-2" d="M63.73,43.12a12.35,12.35,0,0,0,12.68,0L71.29,61a1.52,1.52,0,0,1-1.83,0Z"/><path class="cls-1" d="M64.66,34.73s2.37-4.19,6.79-3.89c0,0,4.54.31,5.07,3.89a7.82,7.82,0,0,1-.4,3.83,1.33,1.33,0,0,0,.3,1.15s1.71,1.49-2.59,2.74c0,0-6.27,1.45-9.82-1.22,0,0-1.94-1.85-1.71-8.46a14.8,14.8,0,0,0,.28-3S62,27.1,64.24,26.48a2.21,2.21,0,0,1,1.47.34s1,.53,0,1.78c0,0-.14.37.43.38,0,0,.56-.19.78.23,0,0,.44.43-1.2,1.2,0,0-.91.39-1,1a12.81,12.81,0,0,0-.12,2.37Z"/></g></svg>